# xmcd CD database file
#
# Track frame offsets:
#	150
#	32898
#	63828
#	95939
#	125081
#	156226
#
# Disc length: 2465 seconds
#
# Revision: 0
# Processed by: cddbd v1.5.2PL0 Copyright (c) Steve Scherf et al.
# Submitted via: CDex 1.81
#
DISCID=53099f06
DTITLE=Wayne Shorter - Night Dreamer
DYEAR=1964
DGENRE=Jazz
TTITLE0=Night Dreamer
TTITLE1=Oriental Folk Song
TTITLE2=Virgo
TTITLE3=Black Nile
TTITLE4=Charcoal Blues
TTITLE5=Armageddon
EXTD=YEAR: 1964
EXTT0=
EXTT1=
EXTT2=
EXTT3=
EXTT4=
EXTT5=
PLAYORDER=
